<svg width="8" height="12" viewBox="0 0 8 12" fill="none" xmlns="http://www.w3.org/2000/svg">
<path d="M4 0C2.93952 0.00147449 1.92283 0.49863 1.17296 1.38241C0.423084 2.26619 0.00125533 3.46443 4.25559e-06 4.71429C-0.00126589 5.73567 0.281815 6.72933 0.805822 7.54286C0.805822 7.54286 0.914912 7.71214 0.932731 7.73657L4 12L7.06872 7.73443C7.08472 7.71171 7.19418 7.54286 7.19418 7.54286L7.19454 7.54157C7.71829 6.72841 8.00124 5.7352 8 4.71429C7.99874 3.46443 7.57692 2.26619 6.82704 1.38241C6.07717 0.49863 5.06048 0.00147449 4 0ZM4 6.42857C3.71232 6.42857 3.4311 6.32803 3.1919 6.13966C2.9527 5.95129 2.76627 5.68356 2.65618 5.37031C2.54609 5.05707 2.51728 4.71238 2.5734 4.37985C2.62953 4.04731 2.76806 3.74185 2.97148 3.5021C3.1749 3.26236 3.43408 3.09909 3.71623 3.03294C3.99839 2.96679 4.29085 3.00074 4.55663 3.13049C4.82241 3.26024 5.04958 3.47997 5.20941 3.76188C5.36924 4.04379 5.45454 4.37523 5.45454 4.71429C5.45406 5.16877 5.30066 5.60447 5.02799 5.92584C4.75531 6.24721 4.38562 6.428 4 6.42857Z" fill="#FF0000"/>
</svg>
